<?xml version="1.0" encoding="iso-8859-1"?>
<!-- Generator: Adobe Illustrator 16.0.0, SVG Export Plug-In . SVG Version: 6.00 Build 0)  -->
<!DOCTYPE svg PUBLIC "-//W3C//DTD SVG 1.1//EN" "http://www.w3.org/Graphics/SVG/1.1/DTD/svg11.dtd">
<svg version="1.1" id="Capa_1" xmlns="http://www.w3.org/2000/svg" xmlns:xlink="http://www.w3.org/1999/xlink" x="0px" y="0px"
	 width="193.477px" height="193.478px" viewBox="0 0 193.477 193.478" style="enable-background:new 0 0 193.477 193.478;"
	 xml:space="preserve">
<g>
	<g>
		<path d="M158.672,117.908l28.395-3.925l-22.059-11.668c3.41-11.171,4.434-22.948,1.07-34.424l10.764-11.91l-14.328,3.08
			c-6.467-12.31-17.484-19.278-30.925-19.278c-0.213,0-0.438,0.045-0.662,0.045l0.804-21.699l-20.948,26.926
			c-3.877,1.969-7.494,4.469-10.763,7.354L66.695,0l6.59,54.932c-7.716,0.547-14.78,2.767-20.634,6.404l-24.917-5.355L41.902,71.65
			c-4.805,7.368-6.493,16.523-4.858,26.764c0.174,1.123,0.429,2.217,0.677,3.311l-31.31,14.356l38.857,2.968
			c4.066,6.142,9.265,11.532,15.028,16.249l-5.828,18.264l19.949-8.487c5.719,3.381,11.529,6.229,17.02,8.605l10.853,39.798
			l8.878-32.574c4.93,1.495,8.222,2.275,8.824,2.411l3.121,0.697l2.341-2.163c0.603-0.556,4.74-4.451,10.214-10.663l21.977,13.796
			l-11.124-27.344C150.788,131.763,155.067,125.102,158.672,117.908z M119.531,150.701c-13.37-3.659-65.051-19.907-70.536-54.202
			c-1.335-8.343,0.213-15.188,4.602-20.327c4.962-5.822,13.728-9.297,23.431-9.297c6.02,0,12.02,1.363,16.898,3.833l4.841,2.456
			l2.968-4.551c6.413-9.841,18.695-16.719,29.867-16.719c7.128,0,16.703,2.888,21.94,16.604
			C165.918,100.873,129.284,140.842,119.531,150.701z"/>
		<polygon points="150.25,35.894 157.419,34.392 162.715,39.452 163.513,32.169 169.961,28.694 163.277,25.694 161.97,18.483 
			157.052,23.912 149.794,22.934 153.429,29.282 		"/>
		<polygon points="47.139,157.403 42.218,162.83 34.954,161.849 38.598,168.209 35.415,174.812 42.593,173.31 47.89,178.369 
			48.682,171.093 55.127,167.618 48.445,164.615 		"/>
		<polygon points="135.602,172.382 132.204,167.89 130.703,173.315 125.371,175.147 130.082,178.257 130.182,183.89 
			134.585,180.379 139.982,182.028 137.997,176.744 141.235,172.134 		"/>
		<polygon points="183.692,125.38 180.069,126.503 177.09,124.149 177.042,127.944 173.88,130.049 177.474,131.267 178.497,134.931 
			180.772,131.887 184.561,132.047 182.363,128.943 		"/>
		<polygon points="13.099,95.099 15.375,92.061 19.164,92.22 16.964,89.12 18.292,85.553 14.659,86.679 11.689,84.326 
			11.639,88.121 8.479,90.225 12.076,91.439 		"/>
		<polygon points="45.366,47.434 50.437,46.376 54.176,49.946 54.734,44.801 59.292,42.345 54.566,40.22 53.644,35.128 
			50.171,38.967 45.038,38.27 47.609,42.762 		"/>
		<polygon points="101.291,12.002 104.21,15.791 105.44,11.166 109.956,9.569 105.936,6.966 105.8,2.184 102.083,5.199 
			97.501,3.848 99.215,8.316 96.52,12.262 		"/>
		<path d="M117.995,79.181c-0.71-0.981-1.638-1.883-2.82-2.562c-3.693-2.154-8.115-1.501-9.841,1.472
			c-1.726,2.967-0.118,7.117,3.594,9.274c3.718,2.154,8.121,1.507,9.847-1.46l8.654-14.896l17.531,10.199l-5.935,10.196
			c-0.71-0.979-1.638-1.868-2.813-2.545c-3.706-2.169-8.109-1.501-9.836,1.463c-1.737,2.962-0.13,7.123,3.594,9.28
			c3.7,2.146,8.109,1.495,9.836-1.472l13.24-22.789l-24.53-14.254L117.995,79.181z M147.5,76.813l-1.53,2.633l-17.525-10.193
			l1.542-2.64L147.5,76.813z"/>
		<path d="M85.107,80.978L69.139,94.903l10.273,11.769c-0.866,0.271-1.726,0.715-2.488,1.389c-2.415,2.093-3.009,5.379-1.321,7.306
			c1.679,1.928,5.007,1.797,7.427-0.318c2.403-2.117,3.009-5.379,1.321-7.312l-8.449-9.699l11.408-9.948l5.787,6.649
			c-0.866,0.261-1.711,0.71-2.477,1.384c-2.415,2.104-3,5.379-1.312,7.306c1.67,1.927,4.995,1.797,7.415-0.319
			c2.406-2.104,3.015-5.367,1.324-7.3L85.107,80.978z M74.902,96.901l-1.49-1.715l11.402-9.947l1.49,1.717L74.902,96.901z"/>
		<path d="M108.513,113.333l0.378,7.933c-0.425-0.166-0.91-0.261-1.418-0.23c-1.632,0.07-2.902,1.188-2.837,2.5
			c0.07,1.294,1.436,2.287,3.062,2.211c1.631-0.089,2.902-1.206,2.837-2.507l-0.319-6.525l7.696-0.378l0.207,4.475
			c-0.426-0.16-0.904-0.255-1.419-0.23c-1.625,0.07-2.902,1.199-2.831,2.5c0.059,1.294,1.431,2.293,3.062,2.204
			c1.619-0.082,2.896-1.188,2.825-2.488l-0.484-9.982L108.513,113.333z M110.18,115.946l-0.053-1.153l7.678-0.384l0.064,1.158
			L110.18,115.946z"/>
	</g>
</g>
<g>
</g>
<g>
</g>
<g>
</g>
<g>
</g>
<g>
</g>
<g>
</g>
<g>
</g>
<g>
</g>
<g>
</g>
<g>
</g>
<g>
</g>
<g>
</g>
<g>
</g>
<g>
</g>
<g>
</g>
</svg>
