<svg xmlns="http://www.w3.org/2000/svg" shape-rendering="geometricPrecision" text-rendering="geometricPrecision" image-rendering="optimizeQuality" fill-rule="evenodd" clip-rule="evenodd" viewBox="0 0 512 512.01"><path fill-rule="nonzero" d="M256 119.41c37.67 0 71.81 15.29 96.54 40.01l.07.06c24.7 24.72 39.98 58.86 39.98 96.52 0 37.72-15.29 71.88-40.01 96.59l-.56.51c-24.68 24.42-58.62 39.5-96.02 39.5-37.72 0-71.88-15.29-96.59-40.01-24.72-24.71-40.01-58.87-40.01-96.59 0-37.67 15.3-71.84 40.03-96.56 24.69-24.74 58.85-40.03 96.57-40.03zM101.16 90.26l35.26 35.25c3.06 3.06 3.06 8.03 0 11.1-3.06 3.06-8.04 3.06-11.1 0l-35-35 .97 23.16c.02.23-.02.46-.1.69a8.548 8.548 0 0 1-3.09 4.29 8.391 8.391 0 0 1-5.01 1.66c-2.35.03-4.51-.92-6.06-2.45-1.58-1.56-2.56-3.68-2.58-6.06-.65-13.31-2.03-28.26-2.04-41.39.01-2.68.92-4.92 2.52-6.5 1.57-1.55 3.75-2.45 6.31-2.49 11.17-.43 30.05 1.1 41.66 1.94 2.32.02 4.45.97 5.98 2.5a8.624 8.624 0 0 1 2.53 5.85v.22c0 2.34-.96 4.5-2.51 6.05a8.555 8.555 0 0 1-5.87 2.52l-.14.01c-7.1.02-12.53-.48-17.94-1l-3.79-.35zM29.33 248.28h49.85c4.34 0 7.85 3.51 7.85 7.85s-3.51 7.85-7.85 7.85H29.69l17.07 15.69c.17.15.31.34.41.55.83 1.64 1.12 3.46.85 5.23a8.46 8.46 0 0 1-2.37 4.72 8.558 8.558 0 0 1-6.02 2.55c-2.21.01-4.41-.8-6.1-2.46-9.88-8.96-21.42-18.55-30.72-27.83-1.89-1.91-2.82-4.14-2.81-6.38.02-2.21.92-4.38 2.7-6.22 7.59-8.21 22.03-20.47 30.83-28.09a8.531 8.531 0 0 1 5.99-2.46c2.14 0 4.28.79 5.93 2.35l.16.15a8.549 8.549 0 0 1 2.5 6.05c0 2.14-.78 4.28-2.36 5.94l-.1.11c-5 5.04-9.2 8.51-13.4 11.97l-2.92 2.43zm60.93 162.55 35.25-35.25a7.846 7.846 0 0 1 11.09 0 7.852 7.852 0 0 1 0 11.11l-35 35 23.17-.98c.23-.01.46.03.69.1 1.74.57 3.24 1.65 4.29 3.1a8.48 8.48 0 0 1 1.66 5.01 8.54 8.54 0 0 1-2.45 6.06 8.568 8.568 0 0 1-6.06 2.57c-13.32.66-28.26 2.03-41.4 2.04-2.68-.01-4.92-.92-6.49-2.51-1.55-1.58-2.45-3.75-2.49-6.31-.44-11.17 1.1-30.05 1.93-41.67a8.54 8.54 0 0 1 2.5-5.97 8.654 8.654 0 0 1 5.85-2.54h.22c2.35 0 4.5.96 6.06 2.52a8.555 8.555 0 0 1 2.52 5.86l.01.14c.02 7.11-.49 12.53-1.01 17.94l-.34 3.78zm158.01 71.83v-49.84a7.85 7.85 0 0 1 7.85-7.85c4.34 0 7.85 3.51 7.85 7.85v49.49l15.7-17.07c.15-.17.34-.3.55-.41a8.633 8.633 0 0 1 5.22-.85c1.73.26 3.39 1.05 4.72 2.37a8.527 8.527 0 0 1 2.56 6.02c.01 2.21-.81 4.41-2.47 6.1-8.96 9.89-18.54 21.42-27.82 30.72-1.91 1.89-4.14 2.83-6.38 2.82-2.21-.02-4.38-.93-6.22-2.71-8.21-7.59-20.47-22.02-28.1-30.83a8.558 8.558 0 0 1-2.45-5.98 8.6 8.6 0 0 1 2.35-5.94l.15-.15a8.56 8.56 0 0 1 6.05-2.51c2.14 0 4.28.78 5.94 2.37l.1.09c5.05 5.01 8.52 9.2 11.98 13.4l2.42 2.91zm162.57-60.91-35.26-35.25c-3.06-3.07-3.06-8.04 0-11.1 3.06-3.06 8.04-3.06 11.1 0l35 35-.97-23.17c-.02-.22.02-.45.1-.68a8.617 8.617 0 0 1 3.09-4.3 8.526 8.526 0 0 1 5.01-1.66 8.49 8.49 0 0 1 6.06 2.46c1.58 1.56 2.56 3.68 2.58 6.05.65 13.32 2.03 28.26 2.04 41.4-.01 2.68-.92 4.92-2.52 6.5-1.57 1.55-3.75 2.44-6.31 2.49-11.17.43-30.05-1.1-41.66-1.94a8.564 8.564 0 0 1-5.98-2.5 8.644 8.644 0 0 1-2.53-5.85v-.22c0-2.35.96-4.5 2.51-6.06a8.644 8.644 0 0 1 5.87-2.52l.14-.01c7.1-.02 12.53.49 17.94 1.01l3.79.35zm71.83-158.02h-49.85c-4.34 0-7.86-3.52-7.86-7.85 0-4.34 3.52-7.85 7.86-7.85h49.48l-17.06-15.7c-.17-.14-.31-.33-.42-.55a8.627 8.627 0 0 1-.84-5.22 8.51 8.51 0 0 1 2.36-4.72 8.556 8.556 0 0 1 6.03-2.55c2.21-.01 4.41.8 6.1 2.46 9.88 8.96 21.42 18.55 30.72 27.83 1.89 1.9 2.82 4.13 2.81 6.38-.02 2.21-.92 4.38-2.7 6.22-7.59 8.2-22.03 20.47-30.83 28.09a8.549 8.549 0 0 1-5.99 2.46 8.62 8.62 0 0 1-5.93-2.35l-.16-.15a8.555 8.555 0 0 1-2.5-6.06c0-2.14.78-4.28 2.36-5.94l.09-.1c5.01-5.04 9.21-8.51 13.41-11.97l2.92-2.43zm-60.93-162.56-35.25 35.26c-3.06 3.05-8.03 3.05-11.09 0a7.852 7.852 0 0 1 0-11.11l35-35-23.17.98c-.23.01-.46-.03-.69-.1a8.566 8.566 0 0 1-4.29-3.1 8.503 8.503 0 0 1-1.66-5.01 8.54 8.54 0 0 1 2.45-6.06c1.56-1.58 3.69-2.56 6.06-2.58 13.31-.65 28.26-2.03 41.4-2.04 2.68.01 4.92.92 6.49 2.52 1.55 1.58 2.45 3.75 2.49 6.31.44 11.17-1.1 30.05-1.93 41.66a8.546 8.546 0 0 1-2.5 5.98 8.604 8.604 0 0 1-5.86 2.53h-.21a8.592 8.592 0 0 1-8.58-8.38l-.01-.13c-.02-7.11.49-12.53 1.01-17.94l.34-3.79zM263.73 29.35v49.84a7.85 7.85 0 0 1-7.85 7.85c-4.34 0-7.86-3.51-7.86-7.85V29.7l-15.69 17.06c-.15.17-.34.31-.55.42a8.554 8.554 0 0 1-5.22.84 8.383 8.383 0 0 1-4.72-2.36 8.544 8.544 0 0 1-2.56-6.02 8.59 8.59 0 0 1 2.47-6.1c8.96-9.89 18.54-21.43 27.82-30.72 1.91-1.9 4.14-2.83 6.38-2.82 2.21.02 4.38.92 6.22 2.71 8.21 7.59 20.47 22.02 28.1 30.83a8.558 8.558 0 0 1 2.45 5.98c0 2.14-.78 4.28-2.35 5.93l-.15.16a8.549 8.549 0 0 1-6.05 2.5c-2.14 0-4.28-.78-5.94-2.36l-.1-.09c-5.05-5.01-8.52-9.2-11.98-13.4l-2.42-2.91zm-98.88 303.4 6.08-4.69c15.28-9.03 38.34-6.67 53.37-17.16.89-1.35 1.86-3.3 2.79-5.42 1.4-3.21 2.67-6.7 3.49-9.08-3.42-4.02-6.34-8.55-9.15-13.03l-9.25-14.71c-3.37-5.05-5.13-9.66-5.25-13.45-.05-1.78.25-3.39.91-4.81.68-1.49 1.74-2.73 3.18-3.7.67-.45 1.43-.84 2.24-1.13-.6-7.99-.81-18.03-.44-26.46.2-1.99.6-3.99 1.15-5.98 2.37-8.44 8.28-15.25 15.62-19.91 4.04-2.59 8.47-4.52 13.1-5.83 2.94-.83-2.5-10.21.53-10.54 14.7-1.51 38.46 11.91 48.71 23.01 5.15 5.55 8.37 12.92 9.07 22.67l-.57 24c2.55.78 4.2 2.41 4.87 5.04.73 2.93-.06 7.04-2.55 12.63-.03.1-.09.2-.15.3l-10.54 17.37c-3.87 6.37-7.81 12.78-12.93 17.82.45.67.93 1.33 1.38 2.02 2.09 3.05 4.2 6.12 6.88 8.85.1.09.18.19.24.28 12.13 8.58 41.67 10.66 53.01 16.97l.45.27 5.99 4.74c17.5-20.73 28.07-47.55 28.07-76.82 0-32.93-13.32-62.72-34.88-84.28-21.55-21.55-51.34-34.87-84.27-34.87-32.9 0-62.7 13.34-84.26 34.9-21.57 21.53-34.9 51.33-34.9 84.25 0 29.23 10.54 56.02 28.01 76.75z"/></svg>