<?xml version="1.0" encoding="UTF-8"?>
<svg enable-background="new 0 0 512 512" version="1.1" viewBox="0 0 512 512" xml:space="preserve" xmlns="http://www.w3.org/2000/svg"><style type="text/css">
	.st0{fill:#D3D8D9;}
	.st1{fill:#EDEDED;}
	.st2{fill:#A8B1B3;}
	.st3{fill:#FB8A8A;}
	.st4{fill:#FCB1B1;}
	.st5{fill:#F96363;}
	.st6{fill:#FFFFFF;}
	.st7{fill:#333333;}
	.st8{fill:#7AD1F9;}
	.st9{fill:#A6E1FB;}
	.st10{fill:#4CC3F7;}
</style><path class="st0" d="m403.2 480.4c0 15.3-12.4 27.6-27.6 27.6h-239.2c-15.3 0-27.6-12.3-27.6-27.6s12.3-27.6 27.6-27.6c5.5 0 10.6 1.6 14.9 4.4 1.7-13.6 13.3-24.1 27.4-24.1 5.5 0 10.7 1.6 15 4.4 1.7-13.6 13.3-24.2 27.4-24.2v-35.4h69.7v35.4c14.1 0 25.7 10.6 27.4 24.2 4.3-2.8 9.5-4.4 15-4.4 14.1 0 25.7 10.5 27.4 24.1 4.3-2.8 9.4-4.4 14.9-4.4 15.3 0 27.7 12.3 27.7 27.6z"/><path class="st1" d="m237 377.8v51.2c-14.1 0-25.7 10.6-27.4 24.2-4.3-2.8-9.4-4.4-15-4.4-14.1 0-25.8 10.5-27.4 24.1-4.3-2.8-9.4-4.4-14.9-4.4-15.3 0-27.6 12.4-27.6 27.6 0 3.5 0.6 6.8 1.9 9.9-10.4-3.9-17.7-14-17.7-25.7 0-15.2 12.4-27.6 27.6-27.6 5.5 0 10.6 1.6 15 4.4 1.7-13.6 13.3-24.1 27.4-24.1 5.5 0 10.7 1.6 15 4.4 1.7-13.6 13.3-24.2 27.4-24.2v-35.4h15.7z"/><path class="st2" d="m275 377.8v51.2c14.1 0 25.7 10.6 27.4 24.2 4.3-2.8 9.4-4.4 15-4.4 14.1 0 25.8 10.5 27.4 24.1 4.3-2.8 9.4-4.4 14.9-4.4 15.3 0 27.6 12.4 27.6 27.6 0 3.5-0.6 6.8-1.9 9.9 10.4-3.9 17.7-14 17.7-25.7 0-15.2-12.4-27.6-27.6-27.6-5.5 0-10.6 1.6-15 4.4-1.7-13.6-13.3-24.1-27.4-24.1-5.5 0-10.7 1.6-15 4.4-1.7-13.6-13.3-24.2-27.4-24.2v-35.4h-15.7z"/><path class="st3" d="m403.8 354c0 9.8-1.7 19.3-4.7 28.2-1.1 3.2-5.3 4-7.4 1.3-16.6-22.2-42.9-36.7-72.6-37.2 6.6-22.8 12.3-49.1 15.6-77.5 39.5 8.3 69.1 43.3 69.1 85.2z"/><path class="st3" d="m192.8 346.3c-29.6 0.6-56 15-72.6 37.2-2 2.7-6.3 1.9-7.4-1.3-3-8.9-4.6-18.4-4.6-28.2 0-41.9 29.6-76.9 69-85.3 3.2 28.5 9 54.7 15.6 77.6z"/><path class="st4" d="m403.8 354c0 3.5-0.2 6.9-0.6 10.3-4.4-37.3-32.3-67.4-68.4-75-2.3 20.3-5.9 39.6-10.2 57.2-1.8-0.2-3.6-0.2-5.4-0.3 6.6-22.8 12.3-49.1 15.6-77.5 39.4 8.4 69 43.4 69 85.3z"/><path class="st4" d="m192.8 346.3c-1.8 0-3.6 0.1-5.4 0.3-4.3-17.6-7.9-36.9-10.2-57.2-36.2 7.6-64.1 37.7-68.4 75-0.4-3.4-0.6-6.8-0.6-10.3 0-41.9 29.6-76.9 69-85.3 3.2 28.4 9 54.6 15.6 77.5z"/><path class="st5" d="m403.8 354c0 9.8-1.7 19.3-4.7 28.2-1.1 3.2-5.3 4-7.4 1.3-16.6-22.2-42.9-36.7-72.6-37.2 2-7 4-14.3 5.7-21.9 27.3 2.2 51.3 16.2 66.8 37 2 2.7 6.3 1.9 7.4-1.3 1.8-5.5 3.2-11.2 4-17.1 0.6 3.6 0.8 7.3 0.8 11z"/><path class="st5" d="m192.8 346.3c-29.6 0.6-56 15-72.6 37.2-2 2.7-6.3 1.9-7.4-1.3-3-8.9-4.6-18.4-4.6-28.2 0-3.8 0.2-7.4 0.7-11.1 0.7 5.9 2.1 11.6 3.9 17.1 1.1 3.2 5.4 4 7.4 1.3 15.5-20.8 39.6-34.8 66.8-37 1.8 7.7 3.8 15 5.8 22z"/><polygon class="st3" points="305 369.5 296.6 393.7 215.4 393.7 207 369.5"/><polygon class="st4" points="229.6 393.7 215.4 393.7 207 369.5 221.2 369.5"/><polygon class="st5" points="305 369.5 296.6 393.7 282.4 393.7 290.8 369.5"/><path class="st6" d="m311.8 369.5c13.5-38.8 25.8-91.6 25.8-149.8 0-119.1-81.6-215.8-81.6-215.8s-81.6 96.6-81.6 215.8c0 58.2 12.3 111 25.8 149.8h111.6z"/><path class="st1" d="m195.3 219.7c0 58.2 12.3 111 25.8 149.8h-20.9c-13.5-38.8-25.8-91.6-25.8-149.8 0-119.2 81.6-215.8 81.6-215.8s4.1 4.8 10.5 13.7c-22.1 30.8-71.2 109.7-71.2 202.1z"/><path class="st1" d="m337.6 219.7c0 58.2-12.3 111-25.8 149.8h-20.9c13.5-38.8 25.8-91.6 25.8-149.8 0-92.5-49.2-171.3-71.2-202.1 6.4-8.8 10.5-13.7 10.5-13.7s81.6 96.6 81.6 215.8z"/><path class="st3" d="M297.1,67.6C276.6,28.3,256,3.9,256,3.9s-20.6,24.4-41.1,63.7H297.1z"/><path class="st4" d="m258 6.5c-3.8 7.2-14.9 29.2-23.7 61.2h-19.4c20.5-39.3 41-63.7 41-63.7s0.8 0.8 2.1 2.5z"/><path class="st5" d="m254 6.5c3.8 7.2 14.9 29.2 23.7 61.2h19.4c-20.5-39.3-41-63.7-41-63.7s-0.8 0.8-2.1 2.5z"/><path class="st7" d="m375.6 448.8c-4.2 0-8.3 0.8-12.2 2.4-5.5-17.6-25.1-26.9-42.4-19.7-3.6-11.7-13.9-20.4-26.2-22v-11.9h1.8c1.7 0 3.2-1.1 3.8-2.7l7.4-21.4h4c1.7 0 3.2-1.1 3.8-2.7 2.1-6.2 4.4-13 6.6-20.4 26.4 1.4 50.5 14.2 66.4 35.5 1.6 2.1 4 3.3 6.5 3.3 0.4 0 0.9 0 1.3-0.1 3.1-0.5 5.6-2.6 6.6-5.5 3.2-9.6 4.9-19.5 4.9-29.5 0-41.6-28.7-78.1-68.7-88.3 1.6-14.6 2.5-30 2.5-46 0-119.3-81.7-217.4-82.6-218.4-1.5-1.8-4.6-1.8-6.1 0-0.8 1-82.6 99.1-82.6 218.4 0 16 0.9 31.4 2.5 46-40 10.2-68.7 46.7-68.7 88.3 0 10 1.6 20 4.8 29.5 1 2.9 3.5 5.1 6.6 5.5 0.4 0.1 0.9 0.1 1.3 0.1 2.5 0 5-1.2 6.5-3.3 15.9-21.3 40-34.1 66.4-35.5 2.2 7.4 4.4 14.3 6.6 20.4 0.6 1.6 2.1 2.7 3.8 2.7h4l7.5 21.4c0.6 1.6 2.1 2.7 3.8 2.7h1.7v11.9c-12.3 1.6-22.5 10.2-26.2 22-17.2-7.2-36.9 2-42.4 19.7-3.8-1.6-8-2.4-12.2-2.4-17.5 0-31.6 14.2-31.6 31.6s14.2 31.6 31.6 31.6h239.2c17.5 0 31.6-14.2 31.6-31.6s-14.2-31.6-31.6-31.6zm24.2-94.8c0 9.1-1.5 18.1-4.5 26.9l-0.4 0.2c-17-22.7-42.5-36.6-70.6-38.6 5.5-19.7 10.6-42.9 13.8-68.7 36.1 9.6 61.7 42.6 61.7 80.2zm-143.8-343.7c6 7.7 19.9 26.6 34.3 53.3h-68.6c14.4-26.6 28.3-45.5 34.3-53.3zm-139 370.8-0.4-0.2c-2.9-8.7-4.4-17.8-4.4-26.9 0-37.6 25.7-70.6 61.6-80.2 3.2 25.8 8.3 49 13.8 68.7-28.1 2-53.6 15.9-70.6 38.6zm86-15.6c-11.5-33.7-24.6-85.6-24.6-145.8 0-57.3 19.4-109.6 39.1-148.1h77c19.8 38.5 39.1 90.8 39.1 148.1 0 60.2-13.2 112.1-24.6 145.8h-106zm9.6 8h86.8l-5.6 16.1h-75.6l-5.6-16.1zm163 130.5h-239.2c-13 0-23.6-10.6-23.6-23.6s10.6-23.6 23.6-23.6c4.5 0 8.9 1.3 12.8 3.8 1.2 0.7 2.6 0.8 3.9 0.3 1.2-0.6 2.1-1.8 2.3-3.1 2.1-17.1 21.6-26.3 36.3-16.8 1.2 0.7 2.6 0.8 3.9 0.3 1.2-0.6 2.1-1.8 2.3-3.1 1.5-11.8 11.5-20.7 23.4-20.7 2.2 0 4-1.8 4-4v-15.6h61.7v15.6c0 2.2 1.8 4 4 4 11.9 0 22 8.9 23.4 20.7 0.2 1.4 1 2.6 2.3 3.1 1.2 0.6 2.7 0.5 3.9-0.3 14.7-9.5 34.1-0.2 36.3 16.9 0.2 1.4 1 2.5 2.3 3.1 1.2 0.6 2.7 0.5 3.9-0.3 3.8-2.5 8.2-3.8 12.8-3.8 13 0 23.6 10.6 23.6 23.6-0.3 12.9-10.9 23.5-23.9 23.5z"/><circle class="st8" cx="256" cy="152.4" r="36.8"/><path class="st9" d="m261.6 124.3c0 18.6-15.1 33.8-33.8 33.8-2.9 0-5.7-0.4-8.4-1.1-0.2-1.5-0.3-3-0.3-4.6 0-20.3 16.5-36.8 36.8-36.8 1.5 0 3.1 0.1 4.6 0.3 0.8 2.7 1.1 5.5 1.1 8.4z"/><path class="st10" d="m292.8 152.4c0 20.3-16.5 36.8-36.8 36.8-14.2 0-26.6-8.1-32.7-20 5 2.6 10.8 4.1 16.8 4.1 20.4 0 36.8-16.5 36.8-36.8 0-6.1-1.5-11.8-4.1-16.8 11.9 6.1 20 18.5 20 32.7z"/><path class="st7" d="m256 193.2c-22.5 0-40.8-18.3-40.8-40.8s18.3-40.8 40.8-40.8 40.8 18.3 40.8 40.8-18.3 40.8-40.8 40.8zm0-73.6c-18.1 0-32.8 14.7-32.8 32.8s14.7 32.8 32.8 32.8 32.8-14.7 32.8-32.8-14.7-32.8-32.8-32.8z"/></svg>
