<?xml version="1.0" encoding="UTF-8"?>
<!DOCTYPE svg  PUBLIC '-//W3C//DTD SVG 1.1//EN'  'http://www.w3.org/Graphics/SVG/1.1/DTD/svg11.dtd'>
<svg enable-background="new 0 0 512 512" version="1.1" viewBox="0 0 512 512" xml:space="preserve" xmlns="http://www.w3.org/2000/svg"><path d="m355.41 68.2h-282.44l7.227 41.272c7.76 44.321 41.838 78.145 84.524 86.656 10.603 24.363 30.766 43.605 55.766 52.969 1.067 13.227 10.77 24.009 23.466 26.709v56.714c-13.134 2.837-23.038 14.331-23.453 28.214h-35.93c-6.431 0-11.645 5.214-11.645 11.645v71.421h166.13v-63.238c0-10.95-8.877-19.827-19.827-19.827h-27.748c-0.414-13.883-10.318-25.377-23.452-28.214v-56.757c12.575-2.763 22.171-13.463 23.265-26.587 25.094-9.335 45.336-28.618 55.967-53.048 42.687-8.511 76.764-42.334 84.524-86.656l7.227-41.272h-83.607zm-61.779 343.67c0 4.023-3.261 7.283-7.283 7.283h-60.704c-4.021 0-7.282-3.26-7.282-7.283v-20.572c0-4.021 3.261-7.283 7.282-7.283h60.704c4.022 0 7.283 3.262 7.283 7.283v20.572zm-195.7-305.5-3.531-20.168h62.179v70.713c0 6.511 0.637 12.873 1.844 19.03-30.831-9.915-54.644-36.168-60.492-69.575zm200.92 29.029-15.364 14.977c-1.297 1.264-1.889 3.085-1.583 4.871l3.627 21.147c0.771 4.495-3.946 7.922-7.983 5.8l-18.991-9.985c-1.604-0.842-3.519-0.842-5.121 0l-18.992 9.985c-4.036 2.122-8.754-1.306-7.982-5.8l3.627-21.147c0.306-1.785-0.286-3.606-1.583-4.871l-15.364-14.977c-3.266-3.183-1.464-8.729 3.049-9.385l21.233-3.085c1.792-0.26 3.342-1.386 4.144-3.01l9.496-19.241c2.018-4.089 7.85-4.089 9.867 0l9.496 19.241c0.802 1.624 2.352 2.75 4.143 3.01l21.234 3.085c4.511 0.656 6.313 6.202 3.047 9.385zm115.21-29.029c-5.849 33.407-29.661 59.661-60.493 69.576 1.207-6.158 1.844-12.52 1.844-19.031v-70.713h62.18l-3.531 20.168z"/></svg>
