<?xml version="1.0" encoding="UTF-8"?>
<svg enable-background="new 0 0 512.001 512.001" version="1.1" viewBox="0 0 512 512" xml:space="preserve" xmlns="http://www.w3.org/2000/svg">
<g fill="#65B4BB">
	<circle cx="396.3" cy="316.42" r="108.1"/>
	<path d="m225.75 171.16v145.26l-167.65-58.153-25.341-8.797s65.922-110.63 67.83-113.71c11.893-19.308 33.224-32.184 57.571-32.184 1.931 0 3.85 0.08 5.735 0.24 34.64 2.913 61.855 31.955 61.855 67.35z"/>
</g>
<g fill="#57A3A7">
	<path d="m163.89 103.81-46.247 104.5-59.548 49.954-25.341-8.797s65.922-110.63 67.83-113.71c11.893-19.308 33.224-32.184 57.571-32.184 1.93-1e-3 3.85 0.079 5.735 0.239z"/>
	<path d="m173.64 105.34c1.727-2.902 2.868-4.806 3.008-5.041 4.676-7.579 13.043-12.631 22.585-12.631 14.653 0 26.521 11.868 26.521 26.521v56.979"/>
</g>
<circle cx="117.64" cy="316.42" r="108.1" fill="#65B4BB"/>
<path d="m288.19 171.17v-56.979c0-14.653 11.868-26.521 26.521-26.521 9.541 0 17.908 5.053 22.585 12.631 0.141 0.235 1.281 2.139 3.008 5.041" fill="#57A3A7"/>
<g fill="#65B4BB">
	<path d="m481.19 249.47-192.99 66.951v-145.26c0-22.907 11.402-43.152 28.837-55.377 10.968-7.7 24.335-12.213 38.754-12.213 24.347 0 45.677 12.876 57.571 32.184 1.907 3.084 67.829 113.71 67.829 113.71z"/>
	<rect x="225.75" y="252.18" width="62.442" height="32.902"/>
</g>
<g fill="#57A3A7">
	<rect x="225.75" y="184.08" width="62.442" height="68.116"/>
	<path d="m332.94 228.83-44.74 73.428v-131.09c0-22.907 11.402-43.152 28.837-55.377l15.903 113.04z"/>
</g>
<g fill="#A0DBFD">
	<circle cx="396.3" cy="316.42" r="71.235"/>
	<circle cx="117.64" cy="316.42" r="71.235"/>
</g>
<path d="m117.65 245.18c-4.291 0-8.485 0.401-12.568 1.128 33.347 5.939 58.672 35.058 58.672 70.112s-25.325 64.173-58.672 70.112c4.082 0.727 8.276 1.128 12.568 1.128 39.344 0 71.239-31.895 71.239-71.239 0-39.346-31.895-71.241-71.239-71.241z" fill="#C1E9FD"/>
<g fill="#87CEE9">
	<path d="m117.65 387.66c4.291 0 8.485-0.401 12.567-1.128-33.347-5.939-58.672-35.058-58.672-70.112s25.325-64.173 58.672-70.112c-4.082-0.727-8.276-1.128-12.567-1.128-39.344 0-71.239 31.895-71.239 71.239s31.894 71.241 71.239 71.241z"/>
	<path d="m396.3 387.66c4.291 0 8.485-0.401 12.568-1.128-33.347-5.939-58.672-35.058-58.672-70.112s25.325-64.173 58.672-70.112c-4.082-0.727-8.276-1.128-12.568-1.128-39.344 0-71.239 31.895-71.239 71.239-1e-3 39.345 31.895 71.241 71.239 71.241z"/>
</g>
<path d="m396.3 245.18c-4.291 0-8.485 0.401-12.567 1.128 33.347 5.939 58.672 35.058 58.672 70.112s-25.325 64.173-58.672 70.112c4.082 0.727 8.276 1.128 12.567 1.128 39.344 0 71.239-31.895 71.239-71.239 1e-3 -39.346-31.894-71.241-71.239-71.241z" fill="#C1E9FD"/>
<path d="m419.69 131.16c-13.99-22.704-38.24-36.258-64.869-36.258-3.799 0-7.53 0.288-11.182 0.828-3e-3 -7e-3 -0.013-0.022-0.016-0.026-6.453-10.457-17.622-16.701-29.876-16.701-19.348 0-35.09 15.741-35.09 35.09v61.312h-45.306v-61.312c0-19.348-15.741-35.09-35.09-35.09-12.232 0-23.38 6.221-29.89 16.727-3.651-0.54-7.384-0.828-11.184-0.828-26.629 0-50.879 13.555-64.87 36.26-0.193 0.313-0.78 1.267-14.882 24.908-2.424 4.064-1.095 9.324 2.969 11.748 4.064 2.423 9.324 1.096 11.748-2.969 11.604-19.452 14.43-24.168 14.757-24.699 10.846-17.602 29.642-28.111 50.279-28.111 32.548 0 59.026 26.479 59.026 59.026v84.444c-20.53-33.481-57.467-55.864-99.536-55.864-18.999 0-36.95 4.568-52.817 12.657 4.075-6.837 8.38-14.06 12.7-21.304 2.423-4.065 1.093-9.325-2.972-11.748s-9.324-1.093-11.748 2.972c-18.206 30.534-46.861 76.35-50.481 83.914-7.276 15.207-11.356 32.227-11.356 50.184 0 64.334 52.34 116.67 116.67 116.67s116.67-52.34 116.67-116.67v-22.767h45.306v22.767c0 64.334 52.34 116.67 116.67 116.67 64.334 0 116.67-52.34 116.67-116.67 0-18.451-4.307-35.913-11.968-51.439-3.501-7.098-78.446-130.64-80.346-133.72zm-14.591 8.991c1.028 1.669 22.444 37.584 43.048 72.152-15.868-8.09-33.819-12.658-52.818-12.658-42.069 0-79.006 22.384-99.536 55.864v-84.444c0-32.548 26.479-59.026 59.026-59.026 20.639 1e-3 39.434 10.51 50.28 28.112zm-109.3-26.058c0-9.899 8.053-17.952 17.952-17.952 4.509 0 8.729 1.665 11.956 4.56-11.731 4.873-21.99 12.593-29.908 22.298v-8.906zm-17.138 78.448v50.973h-45.306v-50.973h45.306zm-92.339-91.836c3.244-2.91 7.45-4.564 11.945-4.564 9.899 0 17.952 8.053 17.952 17.952v8.905c-7.916-9.703-18.17-17.42-29.897-22.293zm-69.639 315.15c-54.885 0-99.537-44.651-99.537-99.536s44.652-99.537 99.537-99.537 99.536 44.652 99.536 99.537-44.652 99.536-99.536 99.536zm116.67-139.44v-15.764h45.306v15.764h-45.306zm161.98 139.44c-54.885 0-99.536-44.652-99.536-99.537s44.652-99.537 99.536-99.537c54.885 0 99.537 44.652 99.537 99.537s-44.653 99.537-99.537 99.537z"/>
<path d="m470.45 289.32c-1.602-4.452-6.508-6.765-10.962-5.164-4.452 1.601-6.765 6.509-5.164 10.962 2.438 6.783 3.675 13.917 3.675 21.203 0 34.557-28.113 62.671-62.671 62.671s-62.671-28.113-62.671-62.671 28.113-62.671 62.671-62.671c17.343 0 34.069 7.286 45.891 19.989 3.224 3.464 8.645 3.659 12.111 0.435 3.464-3.224 3.659-8.645 0.435-12.111-15.051-16.174-36.351-25.451-58.437-25.451-44.007 0-79.808 35.801-79.808 79.808s35.801 79.808 79.808 79.808 79.808-35.801 79.808-79.808c1e-3 -9.266-1.576-18.351-4.686-27z"/>
<path d="m116.67 236.51c-44.007 0-79.808 35.801-79.808 79.808s35.801 79.808 79.808 79.808 79.808-35.801 79.808-79.808-35.802-79.808-79.808-79.808zm0 142.48c-34.557 0-62.671-28.113-62.671-62.671s28.113-62.671 62.671-62.671 62.671 28.113 62.671 62.671-28.115 62.671-62.671 62.671z"/>















</svg>
