<svg width="273" height="73" viewBox="0 0 273 73" fill="none" xmlns="http://www.w3.org/2000/svg">
<path d="M36.5386 33.386L0 51.1233V62.3972L36.5549 44.6527V33.377H36.5386V33.386Z" fill="#E52421"/>
<path d="M36.5386 0V0.0162761L11.2927 12.2722L0 17.7536V45.6037L0.760693 45.2421L11.2927 40.1296L36.5549 27.8502V16.5817H36.5386V16.598L11.2927 28.8448V23.5461L36.5549 11.2829V0H36.5386Z" fill="#E52421"/>
<path d="M61.8188 40.1189V45.6419L36.571 33.386V33.3697H36.5547V44.6436L61.8188 56.9067L73.1096 62.3881V34.3264L69.7173 32.6789L36.5728 16.5837V16.5674H36.5565V27.8413L61.8188 40.1189Z" fill="#B2191B"/>
<path d="M36.5729 0H36.5566V11.2829L73.1116 29.0275V17.7536L36.5729 0.0162761V0Z" fill="#B2191B"/>
<path d="M94.1286 48.881C94.0726 50.9817 94.5684 53.0604 95.5667 54.9104C96.4817 56.5568 97.8408 57.9139 99.4897 58.8275C101.22 59.7675 103.164 60.2436 105.133 60.2091C107.13 60.2456 109.102 59.7699 110.862 58.8275C112.523 57.9201 113.892 56.5621 114.812 54.9104C115.811 53.0606 116.308 50.9818 116.252 48.881V22.3926H118.969V49.0492C119.043 51.6492 118.408 54.2205 117.134 56.4891C115.962 58.5066 114.239 60.1489 112.166 61.2237C109.98 62.299 107.576 62.8582 105.139 62.8582C102.702 62.8582 100.297 62.299 98.1114 61.2237C96.0427 60.1535 94.3276 58.5094 93.1723 56.4891C91.9138 54.2153 91.2884 51.6462 91.3612 49.0492V22.3926H94.1268L94.1286 48.881Z" fill="white"/>
<path d="M140.013 62.8562C137.922 62.8611 135.87 62.2857 134.087 61.1943C132.337 60.1872 130.924 58.6876 130.023 56.8829L130.474 55.9245V72.9999H127.82V40.209H130.191L130.474 47.4229L129.967 45.7953C130.986 43.9875 132.465 42.4808 134.255 41.4279C136.106 40.2895 138.24 39.6935 140.413 39.7081C142.417 39.6805 144.39 40.2069 146.113 41.229C147.797 42.2347 149.189 43.6631 150.148 45.3721C151.168 47.2064 151.684 49.277 151.645 51.3744C151.679 53.4606 151.142 55.5166 150.092 57.3206C149.093 59.0325 147.65 60.4438 145.916 61.4059C144.11 62.3969 142.077 62.9017 140.017 62.8707M139.566 60.6734C141.219 60.6927 142.846 60.264 144.275 59.4329C145.671 58.6211 146.837 57.4671 147.662 56.08C148.51 54.6592 148.949 53.032 148.93 51.378C148.954 49.7078 148.525 48.0622 147.687 46.6163C146.889 45.2376 145.752 44.0839 144.385 43.2635C142.978 42.4277 141.366 41.9982 139.729 42.0229C138.186 42.0029 136.663 42.3734 135.303 43.0998C133.942 43.8262 132.788 44.8848 131.948 46.1769C131.11 47.4817 130.605 48.9721 130.479 50.5172V52.3256C130.582 53.8354 131.078 55.2922 131.917 56.552C132.744 57.8106 133.869 58.8461 135.192 59.5667C136.532 60.3002 138.038 60.6782 139.566 60.6644" fill="white"/>
<path d="M155.095 21.0156H183.09V28.9059H172.987V62.4943H164.803V28.9059H155.095V21.0156Z" fill="white"/>
<path d="M191.95 63.6792C189.891 63.7387 187.889 63.0013 186.363 61.6212C185.619 60.9462 185.024 60.1241 184.616 59.2072C184.208 58.2903 183.995 57.2987 183.992 56.2953V37.8672H191.894V53.3656C191.917 54.3022 192.211 55.2121 192.74 55.9861C193.044 56.3376 193.428 56.6108 193.86 56.7827C194.293 56.9546 194.76 57.02 195.223 56.9735C196.346 56.9904 197.43 56.5656 198.242 55.7908C199.158 54.8897 199.837 53.7764 200.218 52.55C200.708 51.0495 200.946 49.4785 200.923 47.9005V37.8672H208.825V62.4947H201.658L201.037 57.9862L201.149 58.4926C200.587 59.5075 199.863 60.4238 199.005 61.2053C198.109 62.0122 197.063 62.6348 195.926 63.0372C194.646 63.4857 193.297 63.7054 191.941 63.6865" fill="white"/>
<path d="M230.84 63.1729C229.042 63.2291 227.256 62.872 225.618 62.1294C224.229 61.4512 222.977 60.5251 221.922 59.3968L222.541 57.7059V62.4965H214.641V18.0303H222.487V39.5509C223.647 38.6252 224.966 37.9185 226.381 37.4657C228.164 36.8763 230.034 36.5908 231.912 36.6212C233.969 36.5981 235.996 37.1231 237.782 38.1421C239.586 39.1931 241.062 40.7248 242.044 42.5656C243.175 44.7478 243.728 47.1825 243.652 49.6384C243.717 52.1587 243.103 54.6503 241.873 56.8523C240.76 58.8111 239.132 60.4289 237.164 61.5308C235.234 62.6109 233.056 63.1718 230.843 63.1584M229.094 56.5087C230.239 56.5145 231.363 56.2013 232.339 55.6045C233.341 54.9994 234.168 54.1451 234.739 53.1251C235.35 52.0423 235.662 50.8175 235.645 49.5751C235.667 48.3499 235.354 47.1419 234.739 46.0812C234.159 45.0894 233.333 44.264 232.339 43.685C231.356 43.1066 230.235 42.8047 229.094 42.8115C228.123 42.8041 227.158 42.9663 226.243 43.2907C225.406 43.582 224.637 44.0425 223.986 44.6435C223.356 45.2351 222.861 45.9564 222.537 46.7575V52.7869C222.948 53.5616 223.493 54.2576 224.146 54.8431C224.781 55.3964 225.519 55.8181 226.319 56.0837C227.211 56.3759 228.146 56.5189 229.085 56.5069" fill="white"/>
<path d="M259.681 63.1726C257.03 63.2547 254.401 62.6735 252.032 61.4817C250.016 60.425 248.357 58.7975 247.263 56.8033C246.145 54.6879 245.584 52.3229 245.633 49.9311C245.603 47.5566 246.271 45.2252 247.553 43.2254C248.836 41.2309 250.603 39.5929 252.69 38.4637C254.887 37.2668 257.356 36.6551 259.858 36.6878C263.051 36.5661 266.169 37.6657 268.577 39.7622C271.021 42.1329 272.584 45.263 273.009 48.6381L253.811 54.7253L252.061 50.4429L265.946 45.7645L264.316 46.4969C264.012 45.5168 263.458 44.6329 262.707 43.9325C261.736 43.1323 260.493 42.7389 259.237 42.8348C258.154 42.8112 257.086 43.0946 256.158 43.6522C255.266 44.2045 254.559 45.009 254.126 45.9634C253.632 47.0702 253.39 48.273 253.42 49.4844C253.374 50.8221 253.665 52.1497 254.267 53.3455C254.789 54.3364 255.594 55.1503 256.58 55.6838C257.588 56.2171 258.714 56.4883 259.855 56.4723C260.712 56.474 261.563 56.3215 262.367 56.022C263.203 55.7081 264.007 55.3119 264.765 54.8393L268.264 60.7005C266.918 61.4661 265.488 62.073 264.002 62.5089C262.603 62.9407 261.149 63.1685 259.685 63.1853" fill="white"/>
</svg>
